<mxfile host="app.diagrams.net" agent="Mozilla/5.0 (Macintosh; Intel Mac OS X 10_15_7) AppleWebKit/537.36 (KHTML, like Gecko) Chrome/135.0.0.0 Safari/537.36" version="26.1.1">
  <diagram name="第 1 页" id="ewf6fZIbxmU2OJA7V18f">
    <mxGraphModel dx="1865" dy="1182" grid="1" gridSize="10" guides="1" tooltips="1" connect="1" arrows="1" fold="1" page="1" pageScale="1" pageWidth="827" pageHeight="1169" math="0" shadow="0">
      <root>
        <mxCell id="0" />
        <mxCell id="1" parent="0" />
        <mxCell id="Ky0kdg8pcMjqBhU2DteO-1" value="学生" style="shape=umlLifeline;perimeter=lifelinePerimeter;whiteSpace=wrap;container=1;dropTarget=0;collapsible=0;recursiveResize=0;outlineConnect=0;portConstraint=eastwest;newEdgeStyle={&quot;edgeStyle&quot;:&quot;elbowEdgeStyle&quot;,&quot;elbow&quot;:&quot;vertical&quot;,&quot;curved&quot;:0,&quot;rounded&quot;:0};participant=umlActor;verticalAlign=bottom;labelPosition=center;verticalLabelPosition=top;align=center;size=65;" vertex="1" parent="1">
          <mxGeometry x="20" y="20" width="35" height="3531" as="geometry" />
        </mxCell>
        <mxCell id="Ky0kdg8pcMjqBhU2DteO-2" value="" style="points=[];perimeter=orthogonalPerimeter;outlineConnect=0;targetShapes=umlLifeline;portConstraint=eastwest;newEdgeStyle={&quot;edgeStyle&quot;:&quot;elbowEdgeStyle&quot;,&quot;elbow&quot;:&quot;vertical&quot;,&quot;curved&quot;:0,&quot;rounded&quot;:0}" vertex="1" parent="Ky0kdg8pcMjqBhU2DteO-1">
          <mxGeometry x="12.5" y="412" width="10" height="1145" as="geometry" />
        </mxCell>
        <mxCell id="Ky0kdg8pcMjqBhU2DteO-3" value="" style="points=[];perimeter=orthogonalPerimeter;outlineConnect=0;targetShapes=umlLifeline;portConstraint=eastwest;newEdgeStyle={&quot;edgeStyle&quot;:&quot;elbowEdgeStyle&quot;,&quot;elbow&quot;:&quot;vertical&quot;,&quot;curved&quot;:0,&quot;rounded&quot;:0}" vertex="1" parent="Ky0kdg8pcMjqBhU2DteO-1">
          <mxGeometry x="12.5" y="1547" width="10" height="809" as="geometry" />
        </mxCell>
        <mxCell id="Ky0kdg8pcMjqBhU2DteO-4" value="" style="points=[];perimeter=orthogonalPerimeter;outlineConnect=0;targetShapes=umlLifeline;portConstraint=eastwest;newEdgeStyle={&quot;edgeStyle&quot;:&quot;elbowEdgeStyle&quot;,&quot;elbow&quot;:&quot;vertical&quot;,&quot;curved&quot;:0,&quot;rounded&quot;:0}" vertex="1" parent="Ky0kdg8pcMjqBhU2DteO-1">
          <mxGeometry x="12.5" y="2857" width="10" height="559" as="geometry" />
        </mxCell>
        <mxCell id="Ky0kdg8pcMjqBhU2DteO-5" value="教师" style="shape=umlLifeline;perimeter=lifelinePerimeter;whiteSpace=wrap;container=1;dropTarget=0;collapsible=0;recursiveResize=0;outlineConnect=0;portConstraint=eastwest;newEdgeStyle={&quot;edgeStyle&quot;:&quot;elbowEdgeStyle&quot;,&quot;elbow&quot;:&quot;vertical&quot;,&quot;curved&quot;:0,&quot;rounded&quot;:0};participant=umlActor;verticalAlign=bottom;labelPosition=center;verticalLabelPosition=top;align=center;size=65;" vertex="1" parent="1">
          <mxGeometry x="220" y="20" width="35" height="3531" as="geometry" />
        </mxCell>
        <mxCell id="Ky0kdg8pcMjqBhU2DteO-6" value="" style="points=[];perimeter=orthogonalPerimeter;outlineConnect=0;targetShapes=umlLifeline;portConstraint=eastwest;newEdgeStyle={&quot;edgeStyle&quot;:&quot;elbowEdgeStyle&quot;,&quot;elbow&quot;:&quot;vertical&quot;,&quot;curved&quot;:0,&quot;rounded&quot;:0}" vertex="1" parent="Ky0kdg8pcMjqBhU2DteO-5">
          <mxGeometry x="12.5" width="10" as="geometry" />
        </mxCell>
        <mxCell id="Ky0kdg8pcMjqBhU2DteO-7" value="" style="points=[];perimeter=orthogonalPerimeter;outlineConnect=0;targetShapes=umlLifeline;portConstraint=eastwest;newEdgeStyle={&quot;edgeStyle&quot;:&quot;elbowEdgeStyle&quot;,&quot;elbow&quot;:&quot;vertical&quot;,&quot;curved&quot;:0,&quot;rounded&quot;:0}" vertex="1" parent="Ky0kdg8pcMjqBhU2DteO-5">
          <mxGeometry x="17.5" y="2569" width="10" height="38" as="geometry" />
        </mxCell>
        <mxCell id="Ky0kdg8pcMjqBhU2DteO-8" value="课程商城" style="shape=umlLifeline;perimeter=lifelinePerimeter;whiteSpace=wrap;container=1;dropTarget=0;collapsible=0;recursiveResize=0;outlineConnect=0;portConstraint=eastwest;newEdgeStyle={&quot;edgeStyle&quot;:&quot;elbowEdgeStyle&quot;,&quot;elbow&quot;:&quot;vertical&quot;,&quot;curved&quot;:0,&quot;rounded&quot;:0};size=65;" vertex="1" parent="1">
          <mxGeometry x="420" y="20" width="150" height="3531" as="geometry" />
        </mxCell>
        <mxCell id="Ky0kdg8pcMjqBhU2DteO-9" value="" style="points=[];perimeter=orthogonalPerimeter;outlineConnect=0;targetShapes=umlLifeline;portConstraint=eastwest;newEdgeStyle={&quot;edgeStyle&quot;:&quot;elbowEdgeStyle&quot;,&quot;elbow&quot;:&quot;vertical&quot;,&quot;curved&quot;:0,&quot;rounded&quot;:0}" vertex="1" parent="Ky0kdg8pcMjqBhU2DteO-8">
          <mxGeometry x="70" y="316" width="10" height="38" as="geometry" />
        </mxCell>
        <mxCell id="Ky0kdg8pcMjqBhU2DteO-10" value="" style="points=[];perimeter=orthogonalPerimeter;outlineConnect=0;targetShapes=umlLifeline;portConstraint=eastwest;newEdgeStyle={&quot;edgeStyle&quot;:&quot;elbowEdgeStyle&quot;,&quot;elbow&quot;:&quot;vertical&quot;,&quot;curved&quot;:0,&quot;rounded&quot;:0}" vertex="1" parent="Ky0kdg8pcMjqBhU2DteO-8">
          <mxGeometry x="70" y="539" width="10" height="48" as="geometry" />
        </mxCell>
        <mxCell id="Ky0kdg8pcMjqBhU2DteO-11" value="" style="points=[];perimeter=orthogonalPerimeter;outlineConnect=0;targetShapes=umlLifeline;portConstraint=eastwest;newEdgeStyle={&quot;edgeStyle&quot;:&quot;elbowEdgeStyle&quot;,&quot;elbow&quot;:&quot;vertical&quot;,&quot;curved&quot;:0,&quot;rounded&quot;:0}" vertex="1" parent="Ky0kdg8pcMjqBhU2DteO-8">
          <mxGeometry x="70" y="635" width="10" height="240" as="geometry" />
        </mxCell>
        <mxCell id="Ky0kdg8pcMjqBhU2DteO-12" value="支付系统" style="shape=umlLifeline;perimeter=lifelinePerimeter;whiteSpace=wrap;container=1;dropTarget=0;collapsible=0;recursiveResize=0;outlineConnect=0;portConstraint=eastwest;newEdgeStyle={&quot;edgeStyle&quot;:&quot;elbowEdgeStyle&quot;,&quot;elbow&quot;:&quot;vertical&quot;,&quot;curved&quot;:0,&quot;rounded&quot;:0};size=65;" vertex="1" parent="1">
          <mxGeometry x="620" y="20" width="150" height="3531" as="geometry" />
        </mxCell>
        <mxCell id="Ky0kdg8pcMjqBhU2DteO-13" value="" style="points=[];perimeter=orthogonalPerimeter;outlineConnect=0;targetShapes=umlLifeline;portConstraint=eastwest;newEdgeStyle={&quot;edgeStyle&quot;:&quot;elbowEdgeStyle&quot;,&quot;elbow&quot;:&quot;vertical&quot;,&quot;curved&quot;:0,&quot;rounded&quot;:0}" vertex="1" parent="Ky0kdg8pcMjqBhU2DteO-12">
          <mxGeometry x="70" y="923" width="10" height="624" as="geometry" />
        </mxCell>
        <mxCell id="Ky0kdg8pcMjqBhU2DteO-14" value="" style="points=[];perimeter=orthogonalPerimeter;outlineConnect=0;targetShapes=umlLifeline;portConstraint=eastwest;newEdgeStyle={&quot;edgeStyle&quot;:&quot;elbowEdgeStyle&quot;,&quot;elbow&quot;:&quot;vertical&quot;,&quot;curved&quot;:0,&quot;rounded&quot;:0}" vertex="1" parent="Ky0kdg8pcMjqBhU2DteO-12">
          <mxGeometry x="70" y="1866" width="10" height="28" as="geometry" />
        </mxCell>
        <mxCell id="Ky0kdg8pcMjqBhU2DteO-15" value="" style="points=[];perimeter=orthogonalPerimeter;outlineConnect=0;targetShapes=umlLifeline;portConstraint=eastwest;newEdgeStyle={&quot;edgeStyle&quot;:&quot;elbowEdgeStyle&quot;,&quot;elbow&quot;:&quot;vertical&quot;,&quot;curved&quot;:0,&quot;rounded&quot;:0}" vertex="1" parent="Ky0kdg8pcMjqBhU2DteO-12">
          <mxGeometry x="70" y="2665" width="10" height="38" as="geometry" />
        </mxCell>
        <mxCell id="Ky0kdg8pcMjqBhU2DteO-16" value="订单系统" style="shape=umlLifeline;perimeter=lifelinePerimeter;whiteSpace=wrap;container=1;dropTarget=0;collapsible=0;recursiveResize=0;outlineConnect=0;portConstraint=eastwest;newEdgeStyle={&quot;edgeStyle&quot;:&quot;elbowEdgeStyle&quot;,&quot;elbow&quot;:&quot;vertical&quot;,&quot;curved&quot;:0,&quot;rounded&quot;:0};size=65;" vertex="1" parent="1">
          <mxGeometry x="820" y="20" width="150" height="3531" as="geometry" />
        </mxCell>
        <mxCell id="Ky0kdg8pcMjqBhU2DteO-17" value="" style="points=[];perimeter=orthogonalPerimeter;outlineConnect=0;targetShapes=umlLifeline;portConstraint=eastwest;newEdgeStyle={&quot;edgeStyle&quot;:&quot;elbowEdgeStyle&quot;,&quot;elbow&quot;:&quot;vertical&quot;,&quot;curved&quot;:0,&quot;rounded&quot;:0}" vertex="1" parent="Ky0kdg8pcMjqBhU2DteO-16">
          <mxGeometry x="70" y="683" width="10" height="134" as="geometry" />
        </mxCell>
        <mxCell id="Ky0kdg8pcMjqBhU2DteO-18" value="" style="points=[];perimeter=orthogonalPerimeter;outlineConnect=0;targetShapes=umlLifeline;portConstraint=eastwest;newEdgeStyle={&quot;edgeStyle&quot;:&quot;elbowEdgeStyle&quot;,&quot;elbow&quot;:&quot;vertical&quot;,&quot;curved&quot;:0,&quot;rounded&quot;:0}" vertex="1" parent="Ky0kdg8pcMjqBhU2DteO-16">
          <mxGeometry x="70" y="971" width="10" height="518" as="geometry" />
        </mxCell>
        <mxCell id="Ky0kdg8pcMjqBhU2DteO-19" value="" style="points=[];perimeter=orthogonalPerimeter;outlineConnect=0;targetShapes=umlLifeline;portConstraint=eastwest;newEdgeStyle={&quot;edgeStyle&quot;:&quot;elbowEdgeStyle&quot;,&quot;elbow&quot;:&quot;vertical&quot;,&quot;curved&quot;:0,&quot;rounded&quot;:0}" vertex="1" parent="Ky0kdg8pcMjqBhU2DteO-16">
          <mxGeometry x="70" y="1674" width="10" height="672" as="geometry" />
        </mxCell>
        <mxCell id="Ky0kdg8pcMjqBhU2DteO-20" value="履约系统" style="shape=umlLifeline;perimeter=lifelinePerimeter;whiteSpace=wrap;container=1;dropTarget=0;collapsible=0;recursiveResize=0;outlineConnect=0;portConstraint=eastwest;newEdgeStyle={&quot;edgeStyle&quot;:&quot;elbowEdgeStyle&quot;,&quot;elbow&quot;:&quot;vertical&quot;,&quot;curved&quot;:0,&quot;rounded&quot;:0};size=65;" vertex="1" parent="1">
          <mxGeometry x="1020" y="20" width="150" height="3531" as="geometry" />
        </mxCell>
        <mxCell id="Ky0kdg8pcMjqBhU2DteO-21" value="" style="points=[];perimeter=orthogonalPerimeter;outlineConnect=0;targetShapes=umlLifeline;portConstraint=eastwest;newEdgeStyle={&quot;edgeStyle&quot;:&quot;elbowEdgeStyle&quot;,&quot;elbow&quot;:&quot;vertical&quot;,&quot;curved&quot;:0,&quot;rounded&quot;:0}" vertex="1" parent="Ky0kdg8pcMjqBhU2DteO-20">
          <mxGeometry x="70" y="1211" width="10" height="220" as="geometry" />
        </mxCell>
        <mxCell id="Ky0kdg8pcMjqBhU2DteO-22" value="" style="points=[];perimeter=orthogonalPerimeter;outlineConnect=0;targetShapes=umlLifeline;portConstraint=eastwest;newEdgeStyle={&quot;edgeStyle&quot;:&quot;elbowEdgeStyle&quot;,&quot;elbow&quot;:&quot;vertical&quot;,&quot;curved&quot;:0,&quot;rounded&quot;:0}" vertex="1" parent="Ky0kdg8pcMjqBhU2DteO-20">
          <mxGeometry x="70" y="2106" width="10" height="182" as="geometry" />
        </mxCell>
        <mxCell id="Ky0kdg8pcMjqBhU2DteO-23" value="财务系统" style="shape=umlLifeline;perimeter=lifelinePerimeter;whiteSpace=wrap;container=1;dropTarget=0;collapsible=0;recursiveResize=0;outlineConnect=0;portConstraint=eastwest;newEdgeStyle={&quot;edgeStyle&quot;:&quot;elbowEdgeStyle&quot;,&quot;elbow&quot;:&quot;vertical&quot;,&quot;curved&quot;:0,&quot;rounded&quot;:0};size=65;" vertex="1" parent="1">
          <mxGeometry x="1220" y="20" width="150" height="3531" as="geometry" />
        </mxCell>
        <mxCell id="Ky0kdg8pcMjqBhU2DteO-24" value="" style="points=[];perimeter=orthogonalPerimeter;outlineConnect=0;targetShapes=umlLifeline;portConstraint=eastwest;newEdgeStyle={&quot;edgeStyle&quot;:&quot;elbowEdgeStyle&quot;,&quot;elbow&quot;:&quot;vertical&quot;,&quot;curved&quot;:0,&quot;rounded&quot;:0}" vertex="1" parent="Ky0kdg8pcMjqBhU2DteO-23">
          <mxGeometry x="70" y="1115" width="10" height="28" as="geometry" />
        </mxCell>
        <mxCell id="Ky0kdg8pcMjqBhU2DteO-25" value="" style="points=[];perimeter=orthogonalPerimeter;outlineConnect=0;targetShapes=umlLifeline;portConstraint=eastwest;newEdgeStyle={&quot;edgeStyle&quot;:&quot;elbowEdgeStyle&quot;,&quot;elbow&quot;:&quot;vertical&quot;,&quot;curved&quot;:0,&quot;rounded&quot;:0}" vertex="1" parent="Ky0kdg8pcMjqBhU2DteO-23">
          <mxGeometry x="70" y="1818" width="10" height="134" as="geometry" />
        </mxCell>
        <mxCell id="Ky0kdg8pcMjqBhU2DteO-26" value="" style="points=[];perimeter=orthogonalPerimeter;outlineConnect=0;targetShapes=umlLifeline;portConstraint=eastwest;newEdgeStyle={&quot;edgeStyle&quot;:&quot;elbowEdgeStyle&quot;,&quot;elbow&quot;:&quot;vertical&quot;,&quot;curved&quot;:0,&quot;rounded&quot;:0}" vertex="1" parent="Ky0kdg8pcMjqBhU2DteO-23">
          <mxGeometry x="70" y="2346" width="10" height="521" as="geometry" />
        </mxCell>
        <mxCell id="Ky0kdg8pcMjqBhU2DteO-27" value="课程管理" style="shape=umlLifeline;perimeter=lifelinePerimeter;whiteSpace=wrap;container=1;dropTarget=0;collapsible=0;recursiveResize=0;outlineConnect=0;portConstraint=eastwest;newEdgeStyle={&quot;edgeStyle&quot;:&quot;elbowEdgeStyle&quot;,&quot;elbow&quot;:&quot;vertical&quot;,&quot;curved&quot;:0,&quot;rounded&quot;:0};size=65;" vertex="1" parent="1">
          <mxGeometry x="1420" y="20" width="150" height="3531" as="geometry" />
        </mxCell>
        <mxCell id="Ky0kdg8pcMjqBhU2DteO-28" value="" style="points=[];perimeter=orthogonalPerimeter;outlineConnect=0;targetShapes=umlLifeline;portConstraint=eastwest;newEdgeStyle={&quot;edgeStyle&quot;:&quot;elbowEdgeStyle&quot;,&quot;elbow&quot;:&quot;vertical&quot;,&quot;curved&quot;:0,&quot;rounded&quot;:0}" vertex="1" parent="Ky0kdg8pcMjqBhU2DteO-27">
          <mxGeometry x="70" y="172" width="10" height="240" as="geometry" />
        </mxCell>
        <mxCell id="Ky0kdg8pcMjqBhU2DteO-29" value="" style="points=[];perimeter=orthogonalPerimeter;outlineConnect=0;targetShapes=umlLifeline;portConstraint=eastwest;newEdgeStyle={&quot;edgeStyle&quot;:&quot;elbowEdgeStyle&quot;,&quot;elbow&quot;:&quot;vertical&quot;,&quot;curved&quot;:0,&quot;rounded&quot;:0}" vertex="1" parent="Ky0kdg8pcMjqBhU2DteO-27">
          <mxGeometry x="70" y="3128" width="10" height="28" as="geometry" />
        </mxCell>
        <mxCell id="Ky0kdg8pcMjqBhU2DteO-30" value="学生课班" style="shape=umlLifeline;perimeter=lifelinePerimeter;whiteSpace=wrap;container=1;dropTarget=0;collapsible=0;recursiveResize=0;outlineConnect=0;portConstraint=eastwest;newEdgeStyle={&quot;edgeStyle&quot;:&quot;elbowEdgeStyle&quot;,&quot;elbow&quot;:&quot;vertical&quot;,&quot;curved&quot;:0,&quot;rounded&quot;:0};size=65;" vertex="1" parent="1">
          <mxGeometry x="1620" y="20" width="150" height="3531" as="geometry" />
        </mxCell>
        <mxCell id="Ky0kdg8pcMjqBhU2DteO-31" value="" style="points=[];perimeter=orthogonalPerimeter;outlineConnect=0;targetShapes=umlLifeline;portConstraint=eastwest;newEdgeStyle={&quot;edgeStyle&quot;:&quot;elbowEdgeStyle&quot;,&quot;elbow&quot;:&quot;vertical&quot;,&quot;curved&quot;:0,&quot;rounded&quot;:0}" vertex="1" parent="Ky0kdg8pcMjqBhU2DteO-30">
          <mxGeometry x="70" y="1259" width="10" height="114" as="geometry" />
        </mxCell>
        <mxCell id="Ky0kdg8pcMjqBhU2DteO-32" value="" style="points=[];perimeter=orthogonalPerimeter;outlineConnect=0;targetShapes=umlLifeline;portConstraint=eastwest;newEdgeStyle={&quot;edgeStyle&quot;:&quot;elbowEdgeStyle&quot;,&quot;elbow&quot;:&quot;vertical&quot;,&quot;curved&quot;:0,&quot;rounded&quot;:0}" vertex="1" parent="Ky0kdg8pcMjqBhU2DteO-30">
          <mxGeometry x="70" y="1722" width="10" height="38" as="geometry" />
        </mxCell>
        <mxCell id="Ky0kdg8pcMjqBhU2DteO-33" value="" style="points=[];perimeter=orthogonalPerimeter;outlineConnect=0;targetShapes=umlLifeline;portConstraint=eastwest;newEdgeStyle={&quot;edgeStyle&quot;:&quot;elbowEdgeStyle&quot;,&quot;elbow&quot;:&quot;vertical&quot;,&quot;curved&quot;:0,&quot;rounded&quot;:0}" vertex="1" parent="Ky0kdg8pcMjqBhU2DteO-30">
          <mxGeometry x="70" y="2154" width="10" height="76" as="geometry" />
        </mxCell>
        <mxCell id="Ky0kdg8pcMjqBhU2DteO-34" value="" style="points=[];perimeter=orthogonalPerimeter;outlineConnect=0;targetShapes=umlLifeline;portConstraint=eastwest;newEdgeStyle={&quot;edgeStyle&quot;:&quot;elbowEdgeStyle&quot;,&quot;elbow&quot;:&quot;vertical&quot;,&quot;curved&quot;:0,&quot;rounded&quot;:0}" vertex="1" parent="Ky0kdg8pcMjqBhU2DteO-30">
          <mxGeometry x="70" y="2984" width="10" height="230" as="geometry" />
        </mxCell>
        <mxCell id="Ky0kdg8pcMjqBhU2DteO-35" value="" style="points=[];perimeter=orthogonalPerimeter;outlineConnect=0;targetShapes=umlLifeline;portConstraint=eastwest;newEdgeStyle={&quot;edgeStyle&quot;:&quot;elbowEdgeStyle&quot;,&quot;elbow&quot;:&quot;vertical&quot;,&quot;curved&quot;:0,&quot;rounded&quot;:0}" vertex="1" parent="Ky0kdg8pcMjqBhU2DteO-30">
          <mxGeometry x="70" y="3272" width="10" height="134" as="geometry" />
        </mxCell>
        <mxCell id="Ky0kdg8pcMjqBhU2DteO-36" value="数据库" style="shape=umlLifeline;perimeter=lifelinePerimeter;whiteSpace=wrap;container=1;dropTarget=0;collapsible=0;recursiveResize=0;outlineConnect=0;portConstraint=eastwest;newEdgeStyle={&quot;edgeStyle&quot;:&quot;elbowEdgeStyle&quot;,&quot;elbow&quot;:&quot;vertical&quot;,&quot;curved&quot;:0,&quot;rounded&quot;:0};size=65;" vertex="1" parent="1">
          <mxGeometry x="1866" y="20" width="150" height="3531" as="geometry" />
        </mxCell>
        <mxCell id="Ky0kdg8pcMjqBhU2DteO-37" value="" style="points=[];perimeter=orthogonalPerimeter;outlineConnect=0;targetShapes=umlLifeline;portConstraint=eastwest;newEdgeStyle={&quot;edgeStyle&quot;:&quot;elbowEdgeStyle&quot;,&quot;elbow&quot;:&quot;vertical&quot;,&quot;curved&quot;:0,&quot;rounded&quot;:0}" vertex="1" parent="Ky0kdg8pcMjqBhU2DteO-36">
          <mxGeometry x="70" y="220" width="10" height="38" as="geometry" />
        </mxCell>
        <mxCell id="Ky0kdg8pcMjqBhU2DteO-38" value="" style="points=[];perimeter=orthogonalPerimeter;outlineConnect=0;targetShapes=umlLifeline;portConstraint=eastwest;newEdgeStyle={&quot;edgeStyle&quot;:&quot;elbowEdgeStyle&quot;,&quot;elbow&quot;:&quot;vertical&quot;,&quot;curved&quot;:0,&quot;rounded&quot;:0}" vertex="1" parent="Ky0kdg8pcMjqBhU2DteO-36">
          <mxGeometry x="70" y="731" width="10" height="28" as="geometry" />
        </mxCell>
        <mxCell id="Ky0kdg8pcMjqBhU2DteO-39" value="" style="points=[];perimeter=orthogonalPerimeter;outlineConnect=0;targetShapes=umlLifeline;portConstraint=eastwest;newEdgeStyle={&quot;edgeStyle&quot;:&quot;elbowEdgeStyle&quot;,&quot;elbow&quot;:&quot;vertical&quot;,&quot;curved&quot;:0,&quot;rounded&quot;:0}" vertex="1" parent="Ky0kdg8pcMjqBhU2DteO-36">
          <mxGeometry x="70" y="1019" width="10" height="28" as="geometry" />
        </mxCell>
        <mxCell id="Ky0kdg8pcMjqBhU2DteO-40" value="" style="points=[];perimeter=orthogonalPerimeter;outlineConnect=0;targetShapes=umlLifeline;portConstraint=eastwest;newEdgeStyle={&quot;edgeStyle&quot;:&quot;elbowEdgeStyle&quot;,&quot;elbow&quot;:&quot;vertical&quot;,&quot;curved&quot;:0,&quot;rounded&quot;:0}" vertex="1" parent="Ky0kdg8pcMjqBhU2DteO-36">
          <mxGeometry x="70" y="1307" width="10" height="8" as="geometry" />
        </mxCell>
        <mxCell id="Ky0kdg8pcMjqBhU2DteO-41" value="" style="points=[];perimeter=orthogonalPerimeter;outlineConnect=0;targetShapes=umlLifeline;portConstraint=eastwest;newEdgeStyle={&quot;edgeStyle&quot;:&quot;elbowEdgeStyle&quot;,&quot;elbow&quot;:&quot;vertical&quot;,&quot;curved&quot;:0,&quot;rounded&quot;:0}" vertex="1" parent="Ky0kdg8pcMjqBhU2DteO-36">
          <mxGeometry x="70" y="2010" width="10" height="38" as="geometry" />
        </mxCell>
        <mxCell id="Ky0kdg8pcMjqBhU2DteO-42" value="" style="points=[];perimeter=orthogonalPerimeter;outlineConnect=0;targetShapes=umlLifeline;portConstraint=eastwest;newEdgeStyle={&quot;edgeStyle&quot;:&quot;elbowEdgeStyle&quot;,&quot;elbow&quot;:&quot;vertical&quot;,&quot;curved&quot;:0,&quot;rounded&quot;:0}" vertex="1" parent="Ky0kdg8pcMjqBhU2DteO-36">
          <mxGeometry x="70" y="2473" width="10" height="48" as="geometry" />
        </mxCell>
        <mxCell id="Ky0kdg8pcMjqBhU2DteO-43" value="" style="points=[];perimeter=orthogonalPerimeter;outlineConnect=0;targetShapes=umlLifeline;portConstraint=eastwest;newEdgeStyle={&quot;edgeStyle&quot;:&quot;elbowEdgeStyle&quot;,&quot;elbow&quot;:&quot;vertical&quot;,&quot;curved&quot;:0,&quot;rounded&quot;:0}" vertex="1" parent="Ky0kdg8pcMjqBhU2DteO-36">
          <mxGeometry x="70" y="2761" width="10" height="38" as="geometry" />
        </mxCell>
        <mxCell id="Ky0kdg8pcMjqBhU2DteO-44" value="" style="points=[];perimeter=orthogonalPerimeter;outlineConnect=0;targetShapes=umlLifeline;portConstraint=eastwest;newEdgeStyle={&quot;edgeStyle&quot;:&quot;elbowEdgeStyle&quot;,&quot;elbow&quot;:&quot;vertical&quot;,&quot;curved&quot;:0,&quot;rounded&quot;:0}" vertex="1" parent="Ky0kdg8pcMjqBhU2DteO-36">
          <mxGeometry x="70" y="3032" width="10" height="28" as="geometry" />
        </mxCell>
        <mxCell id="Ky0kdg8pcMjqBhU2DteO-45" value="" style="points=[];perimeter=orthogonalPerimeter;outlineConnect=0;targetShapes=umlLifeline;portConstraint=eastwest;newEdgeStyle={&quot;edgeStyle&quot;:&quot;elbowEdgeStyle&quot;,&quot;elbow&quot;:&quot;vertical&quot;,&quot;curved&quot;:0,&quot;rounded&quot;:0}" vertex="1" parent="Ky0kdg8pcMjqBhU2DteO-36">
          <mxGeometry x="70" y="3320" width="10" height="28" as="geometry" />
        </mxCell>
        <mxCell id="Ky0kdg8pcMjqBhU2DteO-46" value="" style="shape=umlFrame;dashed=1;pointerEvents=0;dropTarget=0;strokeColor=#B3B3B3;height=20;width=0" vertex="1" parent="1">
          <mxGeometry x="60" y="95" width="1916" height="357" as="geometry" />
        </mxCell>
        <mxCell id="Ky0kdg8pcMjqBhU2DteO-47" value="" style="text;strokeColor=none;fillColor=none;align=center;verticalAlign=middle;whiteSpace=wrap;" vertex="1" parent="Ky0kdg8pcMjqBhU2DteO-46">
          <mxGeometry width="1916" height="20" as="geometry" />
        </mxCell>
        <mxCell id="Ky0kdg8pcMjqBhU2DteO-48" value="" style="shape=umlFrame;dashed=1;pointerEvents=0;dropTarget=0;strokeColor=#B3B3B3;height=20;width=0" vertex="1" parent="1">
          <mxGeometry x="60" y="462" width="1916" height="1125" as="geometry" />
        </mxCell>
        <mxCell id="Ky0kdg8pcMjqBhU2DteO-49" value="" style="text;strokeColor=none;fillColor=none;align=center;verticalAlign=middle;whiteSpace=wrap;" vertex="1" parent="Ky0kdg8pcMjqBhU2DteO-48">
          <mxGeometry width="1916" height="20" as="geometry" />
        </mxCell>
        <mxCell id="Ky0kdg8pcMjqBhU2DteO-50" value="" style="shape=umlFrame;dashed=1;pointerEvents=0;dropTarget=0;strokeColor=#B3B3B3;height=20;width=0" vertex="1" parent="1">
          <mxGeometry x="60" y="1597" width="1916" height="789" as="geometry" />
        </mxCell>
        <mxCell id="Ky0kdg8pcMjqBhU2DteO-51" value="" style="text;strokeColor=none;fillColor=none;align=center;verticalAlign=middle;whiteSpace=wrap;" vertex="1" parent="Ky0kdg8pcMjqBhU2DteO-50">
          <mxGeometry width="1916" height="20" as="geometry" />
        </mxCell>
        <mxCell id="Ky0kdg8pcMjqBhU2DteO-52" value="" style="shape=umlFrame;dashed=1;pointerEvents=0;dropTarget=0;strokeColor=#B3B3B3;height=20;width=0" vertex="1" parent="1">
          <mxGeometry x="60" y="2396" width="1916" height="501" as="geometry" />
        </mxCell>
        <mxCell id="Ky0kdg8pcMjqBhU2DteO-53" value="" style="text;strokeColor=none;fillColor=none;align=center;verticalAlign=middle;whiteSpace=wrap;" vertex="1" parent="Ky0kdg8pcMjqBhU2DteO-52">
          <mxGeometry width="1916" height="20" as="geometry" />
        </mxCell>
        <mxCell id="Ky0kdg8pcMjqBhU2DteO-54" value="" style="shape=umlFrame;dashed=1;pointerEvents=0;dropTarget=0;strokeColor=#B3B3B3;height=20;width=0" vertex="1" parent="1">
          <mxGeometry x="60" y="2907" width="1916" height="549" as="geometry" />
        </mxCell>
        <mxCell id="Ky0kdg8pcMjqBhU2DteO-55" value="" style="text;strokeColor=none;fillColor=none;align=center;verticalAlign=middle;whiteSpace=wrap;" vertex="1" parent="Ky0kdg8pcMjqBhU2DteO-54">
          <mxGeometry width="1916" height="20" as="geometry" />
        </mxCell>
        <mxCell id="Ky0kdg8pcMjqBhU2DteO-56" value="创建课程" style="verticalAlign=bottom;edgeStyle=elbowEdgeStyle;elbow=vertical;curved=0;rounded=0;endArrow=block;" edge="1" parent="1" source="Ky0kdg8pcMjqBhU2DteO-5" target="Ky0kdg8pcMjqBhU2DteO-28">
          <mxGeometry relative="1" as="geometry">
            <Array as="points">
              <mxPoint x="904" y="192" />
            </Array>
          </mxGeometry>
        </mxCell>
        <mxCell id="Ky0kdg8pcMjqBhU2DteO-57" value="保存课程信息" style="verticalAlign=bottom;edgeStyle=elbowEdgeStyle;elbow=vertical;curved=0;rounded=0;endArrow=block;" edge="1" parent="1" source="Ky0kdg8pcMjqBhU2DteO-28" target="Ky0kdg8pcMjqBhU2DteO-37">
          <mxGeometry relative="1" as="geometry">
            <Array as="points">
              <mxPoint x="1727" y="240" />
            </Array>
          </mxGeometry>
        </mxCell>
        <mxCell id="Ky0kdg8pcMjqBhU2DteO-58" value="保存成功" style="verticalAlign=bottom;edgeStyle=elbowEdgeStyle;elbow=vertical;curved=0;rounded=0;dashed=1;dashPattern=2 3;endArrow=block;" edge="1" parent="1" source="Ky0kdg8pcMjqBhU2DteO-36" target="Ky0kdg8pcMjqBhU2DteO-28">
          <mxGeometry relative="1" as="geometry">
            <Array as="points">
              <mxPoint x="1730" y="288" />
            </Array>
          </mxGeometry>
        </mxCell>
        <mxCell id="Ky0kdg8pcMjqBhU2DteO-59" value="上架课程" style="verticalAlign=bottom;edgeStyle=elbowEdgeStyle;elbow=vertical;curved=0;rounded=0;endArrow=block;" edge="1" parent="1" source="Ky0kdg8pcMjqBhU2DteO-28" target="Ky0kdg8pcMjqBhU2DteO-9">
          <mxGeometry relative="1" as="geometry">
            <Array as="points">
              <mxPoint x="1007" y="336" />
            </Array>
          </mxGeometry>
        </mxCell>
        <mxCell id="Ky0kdg8pcMjqBhU2DteO-60" value="上架成功" style="verticalAlign=bottom;edgeStyle=elbowEdgeStyle;elbow=vertical;curved=0;rounded=0;dashed=1;dashPattern=2 3;endArrow=block;" edge="1" parent="1" source="Ky0kdg8pcMjqBhU2DteO-8" target="Ky0kdg8pcMjqBhU2DteO-28">
          <mxGeometry relative="1" as="geometry">
            <Array as="points">
              <mxPoint x="1004" y="384" />
            </Array>
          </mxGeometry>
        </mxCell>
        <mxCell id="Ky0kdg8pcMjqBhU2DteO-61" value="完成课程发布" style="verticalAlign=bottom;edgeStyle=elbowEdgeStyle;elbow=vertical;curved=0;rounded=0;dashed=1;dashPattern=2 3;endArrow=block;" edge="1" parent="1" source="Ky0kdg8pcMjqBhU2DteO-28" target="Ky0kdg8pcMjqBhU2DteO-5">
          <mxGeometry relative="1" as="geometry">
            <Array as="points">
              <mxPoint x="907" y="432" />
            </Array>
          </mxGeometry>
        </mxCell>
        <mxCell id="Ky0kdg8pcMjqBhU2DteO-62" value="浏览课程" style="verticalAlign=bottom;edgeStyle=elbowEdgeStyle;elbow=vertical;curved=0;rounded=0;endArrow=block;" edge="1" parent="1" source="Ky0kdg8pcMjqBhU2DteO-2" target="Ky0kdg8pcMjqBhU2DteO-10">
          <mxGeometry relative="1" as="geometry">
            <Array as="points">
              <mxPoint x="304" y="559" />
            </Array>
          </mxGeometry>
        </mxCell>
        <mxCell id="Ky0kdg8pcMjqBhU2DteO-63" value="返回课程列表" style="verticalAlign=bottom;edgeStyle=elbowEdgeStyle;elbow=vertical;curved=0;rounded=0;dashed=1;dashPattern=2 3;endArrow=block;" edge="1" parent="1" source="Ky0kdg8pcMjqBhU2DteO-10" target="Ky0kdg8pcMjqBhU2DteO-2">
          <mxGeometry relative="1" as="geometry">
            <Array as="points">
              <mxPoint x="307" y="607" />
            </Array>
          </mxGeometry>
        </mxCell>
        <mxCell id="Ky0kdg8pcMjqBhU2DteO-64" value="选择课程" style="verticalAlign=bottom;edgeStyle=elbowEdgeStyle;elbow=vertical;curved=0;rounded=0;endArrow=block;" edge="1" parent="1" source="Ky0kdg8pcMjqBhU2DteO-2" target="Ky0kdg8pcMjqBhU2DteO-11">
          <mxGeometry relative="1" as="geometry">
            <Array as="points">
              <mxPoint x="304" y="655" />
            </Array>
          </mxGeometry>
        </mxCell>
        <mxCell id="Ky0kdg8pcMjqBhU2DteO-65" value="创建订单" style="verticalAlign=bottom;edgeStyle=elbowEdgeStyle;elbow=vertical;curved=0;rounded=0;endArrow=block;" edge="1" parent="1" source="Ky0kdg8pcMjqBhU2DteO-11" target="Ky0kdg8pcMjqBhU2DteO-17">
          <mxGeometry relative="1" as="geometry">
            <Array as="points">
              <mxPoint x="704" y="703" />
            </Array>
          </mxGeometry>
        </mxCell>
        <mxCell id="Ky0kdg8pcMjqBhU2DteO-66" value="保存订单信息" style="verticalAlign=bottom;edgeStyle=elbowEdgeStyle;elbow=vertical;curved=0;rounded=0;endArrow=block;" edge="1" parent="1" source="Ky0kdg8pcMjqBhU2DteO-17" target="Ky0kdg8pcMjqBhU2DteO-38">
          <mxGeometry relative="1" as="geometry">
            <Array as="points">
              <mxPoint x="1427" y="751" />
            </Array>
          </mxGeometry>
        </mxCell>
        <mxCell id="Ky0kdg8pcMjqBhU2DteO-67" value="保存成功" style="verticalAlign=bottom;edgeStyle=elbowEdgeStyle;elbow=vertical;curved=0;rounded=0;dashed=1;dashPattern=2 3;endArrow=block;" edge="1" parent="1" source="Ky0kdg8pcMjqBhU2DteO-36" target="Ky0kdg8pcMjqBhU2DteO-17">
          <mxGeometry relative="1" as="geometry">
            <Array as="points">
              <mxPoint x="1430" y="799" />
            </Array>
          </mxGeometry>
        </mxCell>
        <mxCell id="Ky0kdg8pcMjqBhU2DteO-68" value="订单创建成功" style="verticalAlign=bottom;edgeStyle=elbowEdgeStyle;elbow=vertical;curved=0;rounded=0;dashed=1;dashPattern=2 3;endArrow=block;" edge="1" parent="1" source="Ky0kdg8pcMjqBhU2DteO-16" target="Ky0kdg8pcMjqBhU2DteO-11">
          <mxGeometry relative="1" as="geometry">
            <Array as="points">
              <mxPoint x="707" y="847" />
            </Array>
          </mxGeometry>
        </mxCell>
        <mxCell id="Ky0kdg8pcMjqBhU2DteO-69" value="显示支付页面" style="verticalAlign=bottom;edgeStyle=elbowEdgeStyle;elbow=vertical;curved=0;rounded=0;dashed=1;dashPattern=2 3;endArrow=block;" edge="1" parent="1" source="Ky0kdg8pcMjqBhU2DteO-11" target="Ky0kdg8pcMjqBhU2DteO-2">
          <mxGeometry relative="1" as="geometry">
            <Array as="points">
              <mxPoint x="307" y="895" />
            </Array>
          </mxGeometry>
        </mxCell>
        <mxCell id="Ky0kdg8pcMjqBhU2DteO-70" value="支付订单" style="verticalAlign=bottom;edgeStyle=elbowEdgeStyle;elbow=vertical;curved=0;rounded=0;endArrow=block;" edge="1" parent="1" source="Ky0kdg8pcMjqBhU2DteO-2" target="Ky0kdg8pcMjqBhU2DteO-13">
          <mxGeometry relative="1" as="geometry">
            <Array as="points">
              <mxPoint x="404" y="943" />
            </Array>
          </mxGeometry>
        </mxCell>
        <mxCell id="Ky0kdg8pcMjqBhU2DteO-71" value="支付结果回调" style="verticalAlign=bottom;edgeStyle=elbowEdgeStyle;elbow=vertical;curved=0;rounded=0;endArrow=block;" edge="1" parent="1" source="Ky0kdg8pcMjqBhU2DteO-13" target="Ky0kdg8pcMjqBhU2DteO-18">
          <mxGeometry relative="1" as="geometry">
            <Array as="points">
              <mxPoint x="804" y="991" />
            </Array>
          </mxGeometry>
        </mxCell>
        <mxCell id="Ky0kdg8pcMjqBhU2DteO-72" value="更新订单状态" style="verticalAlign=bottom;edgeStyle=elbowEdgeStyle;elbow=vertical;curved=0;rounded=0;endArrow=block;" edge="1" parent="1" source="Ky0kdg8pcMjqBhU2DteO-18" target="Ky0kdg8pcMjqBhU2DteO-39">
          <mxGeometry relative="1" as="geometry">
            <Array as="points">
              <mxPoint x="1427" y="1039" />
            </Array>
          </mxGeometry>
        </mxCell>
        <mxCell id="Ky0kdg8pcMjqBhU2DteO-73" value="更新成功" style="verticalAlign=bottom;edgeStyle=elbowEdgeStyle;elbow=vertical;curved=0;rounded=0;dashed=1;dashPattern=2 3;endArrow=block;" edge="1" parent="1" source="Ky0kdg8pcMjqBhU2DteO-36" target="Ky0kdg8pcMjqBhU2DteO-18">
          <mxGeometry relative="1" as="geometry">
            <Array as="points">
              <mxPoint x="1430" y="1087" />
            </Array>
          </mxGeometry>
        </mxCell>
        <mxCell id="Ky0kdg8pcMjqBhU2DteO-74" value="记录交易" style="verticalAlign=bottom;edgeStyle=elbowEdgeStyle;elbow=vertical;curved=0;rounded=0;endArrow=block;" edge="1" parent="1" source="Ky0kdg8pcMjqBhU2DteO-18" target="Ky0kdg8pcMjqBhU2DteO-24">
          <mxGeometry relative="1" as="geometry">
            <Array as="points">
              <mxPoint x="1104" y="1135" />
            </Array>
          </mxGeometry>
        </mxCell>
        <mxCell id="Ky0kdg8pcMjqBhU2DteO-75" value="记录成功" style="verticalAlign=bottom;edgeStyle=elbowEdgeStyle;elbow=vertical;curved=0;rounded=0;dashed=1;dashPattern=2 3;endArrow=block;" edge="1" parent="1" source="Ky0kdg8pcMjqBhU2DteO-23" target="Ky0kdg8pcMjqBhU2DteO-18">
          <mxGeometry relative="1" as="geometry">
            <Array as="points">
              <mxPoint x="1107" y="1183" />
            </Array>
          </mxGeometry>
        </mxCell>
        <mxCell id="Ky0kdg8pcMjqBhU2DteO-76" value="通知订单支付成功" style="verticalAlign=bottom;edgeStyle=elbowEdgeStyle;elbow=vertical;curved=0;rounded=0;endArrow=block;" edge="1" parent="1" source="Ky0kdg8pcMjqBhU2DteO-18" target="Ky0kdg8pcMjqBhU2DteO-21">
          <mxGeometry relative="1" as="geometry">
            <Array as="points">
              <mxPoint x="1004" y="1231" />
            </Array>
          </mxGeometry>
        </mxCell>
        <mxCell id="Ky0kdg8pcMjqBhU2DteO-77" value="创建学生课程" style="verticalAlign=bottom;edgeStyle=elbowEdgeStyle;elbow=vertical;curved=0;rounded=0;endArrow=block;" edge="1" parent="1" source="Ky0kdg8pcMjqBhU2DteO-21" target="Ky0kdg8pcMjqBhU2DteO-31">
          <mxGeometry relative="1" as="geometry">
            <Array as="points">
              <mxPoint x="1404" y="1279" />
            </Array>
          </mxGeometry>
        </mxCell>
        <mxCell id="Ky0kdg8pcMjqBhU2DteO-78" value="保存学生课程" style="verticalAlign=bottom;edgeStyle=elbowEdgeStyle;elbow=vertical;curved=0;rounded=0;endArrow=block;" edge="1" parent="1" source="Ky0kdg8pcMjqBhU2DteO-31" target="Ky0kdg8pcMjqBhU2DteO-40">
          <mxGeometry relative="1" as="geometry">
            <Array as="points">
              <mxPoint x="1827" y="1327" />
            </Array>
          </mxGeometry>
        </mxCell>
        <mxCell id="Ky0kdg8pcMjqBhU2DteO-79" value="保存成功" style="verticalAlign=bottom;edgeStyle=elbowEdgeStyle;elbow=vertical;curved=0;rounded=0;dashed=1;dashPattern=2 3;endArrow=block;" edge="1" parent="1" source="Ky0kdg8pcMjqBhU2DteO-36" target="Ky0kdg8pcMjqBhU2DteO-31">
          <mxGeometry relative="1" as="geometry">
            <Array as="points">
              <mxPoint x="1830" y="1375" />
            </Array>
          </mxGeometry>
        </mxCell>
        <mxCell id="Ky0kdg8pcMjqBhU2DteO-80" value="返回植课结果" style="verticalAlign=bottom;edgeStyle=elbowEdgeStyle;elbow=vertical;curved=0;rounded=0;dashed=1;dashPattern=2 3;endArrow=block;" edge="1" parent="1" source="Ky0kdg8pcMjqBhU2DteO-30" target="Ky0kdg8pcMjqBhU2DteO-21">
          <mxGeometry relative="1" as="geometry">
            <Array as="points">
              <mxPoint x="1407" y="1423" />
            </Array>
          </mxGeometry>
        </mxCell>
        <mxCell id="Ky0kdg8pcMjqBhU2DteO-81" value="处理完成" style="verticalAlign=bottom;edgeStyle=elbowEdgeStyle;elbow=vertical;curved=0;rounded=0;dashed=1;dashPattern=2 3;endArrow=block;" edge="1" parent="1" source="Ky0kdg8pcMjqBhU2DteO-20" target="Ky0kdg8pcMjqBhU2DteO-18">
          <mxGeometry relative="1" as="geometry">
            <Array as="points">
              <mxPoint x="1007" y="1471" />
            </Array>
          </mxGeometry>
        </mxCell>
        <mxCell id="Ky0kdg8pcMjqBhU2DteO-82" value="确认完成" style="verticalAlign=bottom;edgeStyle=elbowEdgeStyle;elbow=vertical;curved=0;rounded=0;dashed=1;dashPattern=2 3;endArrow=block;" edge="1" parent="1" source="Ky0kdg8pcMjqBhU2DteO-16" target="Ky0kdg8pcMjqBhU2DteO-13">
          <mxGeometry relative="1" as="geometry">
            <Array as="points">
              <mxPoint x="807" y="1519" />
            </Array>
          </mxGeometry>
        </mxCell>
        <mxCell id="Ky0kdg8pcMjqBhU2DteO-83" value="支付成功" style="verticalAlign=bottom;edgeStyle=elbowEdgeStyle;elbow=vertical;curved=0;rounded=0;dashed=1;dashPattern=2 3;endArrow=block;" edge="1" parent="1" source="Ky0kdg8pcMjqBhU2DteO-13" target="Ky0kdg8pcMjqBhU2DteO-2">
          <mxGeometry relative="1" as="geometry">
            <Array as="points">
              <mxPoint x="407" y="1567" />
            </Array>
          </mxGeometry>
        </mxCell>
        <mxCell id="Ky0kdg8pcMjqBhU2DteO-84" value="申请退款" style="verticalAlign=bottom;edgeStyle=elbowEdgeStyle;elbow=vertical;curved=0;rounded=0;endArrow=block;" edge="1" parent="1" source="Ky0kdg8pcMjqBhU2DteO-3" target="Ky0kdg8pcMjqBhU2DteO-19">
          <mxGeometry relative="1" as="geometry">
            <Array as="points">
              <mxPoint x="504" y="1694" />
            </Array>
          </mxGeometry>
        </mxCell>
        <mxCell id="Ky0kdg8pcMjqBhU2DteO-85" value="检查学习进度" style="verticalAlign=bottom;edgeStyle=elbowEdgeStyle;elbow=vertical;curved=0;rounded=0;endArrow=block;" edge="1" parent="1" source="Ky0kdg8pcMjqBhU2DteO-19" target="Ky0kdg8pcMjqBhU2DteO-32">
          <mxGeometry relative="1" as="geometry">
            <Array as="points">
              <mxPoint x="1304" y="1742" />
            </Array>
          </mxGeometry>
        </mxCell>
        <mxCell id="Ky0kdg8pcMjqBhU2DteO-86" value="返回学习进度信息" style="verticalAlign=bottom;edgeStyle=elbowEdgeStyle;elbow=vertical;curved=0;rounded=0;dashed=1;dashPattern=2 3;endArrow=block;" edge="1" parent="1" source="Ky0kdg8pcMjqBhU2DteO-30" target="Ky0kdg8pcMjqBhU2DteO-19">
          <mxGeometry relative="1" as="geometry">
            <Array as="points">
              <mxPoint x="1307" y="1790" />
            </Array>
          </mxGeometry>
        </mxCell>
        <mxCell id="Ky0kdg8pcMjqBhU2DteO-87" value="处理退款申请" style="verticalAlign=bottom;edgeStyle=elbowEdgeStyle;elbow=vertical;curved=0;rounded=0;endArrow=block;" edge="1" parent="1" source="Ky0kdg8pcMjqBhU2DteO-19" target="Ky0kdg8pcMjqBhU2DteO-25">
          <mxGeometry relative="1" as="geometry">
            <Array as="points">
              <mxPoint x="1104" y="1838" />
            </Array>
          </mxGeometry>
        </mxCell>
        <mxCell id="Ky0kdg8pcMjqBhU2DteO-88" value="执行退款" style="verticalAlign=bottom;edgeStyle=elbowEdgeStyle;elbow=vertical;curved=0;rounded=0;endArrow=block;" edge="1" parent="1" source="Ky0kdg8pcMjqBhU2DteO-25" target="Ky0kdg8pcMjqBhU2DteO-14">
          <mxGeometry relative="1" as="geometry">
            <Array as="points">
              <mxPoint x="1007" y="1886" />
            </Array>
          </mxGeometry>
        </mxCell>
        <mxCell id="Ky0kdg8pcMjqBhU2DteO-89" value="退款结果回调" style="verticalAlign=bottom;edgeStyle=elbowEdgeStyle;elbow=vertical;curved=0;rounded=0;dashed=1;dashPattern=2 3;endArrow=block;" edge="1" parent="1" source="Ky0kdg8pcMjqBhU2DteO-12" target="Ky0kdg8pcMjqBhU2DteO-25">
          <mxGeometry relative="1" as="geometry">
            <Array as="points">
              <mxPoint x="1004" y="1934" />
            </Array>
          </mxGeometry>
        </mxCell>
        <mxCell id="Ky0kdg8pcMjqBhU2DteO-90" value="更新退款状态" style="verticalAlign=bottom;edgeStyle=elbowEdgeStyle;elbow=vertical;curved=0;rounded=0;dashed=1;dashPattern=2 3;endArrow=block;" edge="1" parent="1" source="Ky0kdg8pcMjqBhU2DteO-23" target="Ky0kdg8pcMjqBhU2DteO-19">
          <mxGeometry relative="1" as="geometry">
            <Array as="points">
              <mxPoint x="1107" y="1982" />
            </Array>
          </mxGeometry>
        </mxCell>
        <mxCell id="Ky0kdg8pcMjqBhU2DteO-91" value="更新订单状态" style="verticalAlign=bottom;edgeStyle=elbowEdgeStyle;elbow=vertical;curved=0;rounded=0;endArrow=block;" edge="1" parent="1" source="Ky0kdg8pcMjqBhU2DteO-19" target="Ky0kdg8pcMjqBhU2DteO-41">
          <mxGeometry relative="1" as="geometry">
            <Array as="points">
              <mxPoint x="1427" y="2030" />
            </Array>
          </mxGeometry>
        </mxCell>
        <mxCell id="Ky0kdg8pcMjqBhU2DteO-92" value="更新成功" style="verticalAlign=bottom;edgeStyle=elbowEdgeStyle;elbow=vertical;curved=0;rounded=0;dashed=1;dashPattern=2 3;endArrow=block;" edge="1" parent="1" source="Ky0kdg8pcMjqBhU2DteO-36" target="Ky0kdg8pcMjqBhU2DteO-19">
          <mxGeometry relative="1" as="geometry">
            <Array as="points">
              <mxPoint x="1430" y="2078" />
            </Array>
          </mxGeometry>
        </mxCell>
        <mxCell id="Ky0kdg8pcMjqBhU2DteO-93" value="通知退款成功" style="verticalAlign=bottom;edgeStyle=elbowEdgeStyle;elbow=vertical;curved=0;rounded=0;endArrow=block;" edge="1" parent="1" source="Ky0kdg8pcMjqBhU2DteO-19" target="Ky0kdg8pcMjqBhU2DteO-22">
          <mxGeometry relative="1" as="geometry">
            <Array as="points">
              <mxPoint x="1004" y="2126" />
            </Array>
          </mxGeometry>
        </mxCell>
        <mxCell id="Ky0kdg8pcMjqBhU2DteO-94" value="撤销学生课程" style="verticalAlign=bottom;edgeStyle=elbowEdgeStyle;elbow=vertical;curved=0;rounded=0;endArrow=block;" edge="1" parent="1" source="Ky0kdg8pcMjqBhU2DteO-22" target="Ky0kdg8pcMjqBhU2DteO-33">
          <mxGeometry relative="1" as="geometry">
            <Array as="points">
              <mxPoint x="1404" y="2174" />
            </Array>
          </mxGeometry>
        </mxCell>
        <mxCell id="Ky0kdg8pcMjqBhU2DteO-95" value="删除或标记无效学生课程" style="verticalAlign=bottom;edgeStyle=elbowEdgeStyle;elbow=vertical;curved=0;rounded=0;endArrow=block;" edge="1" parent="1" source="Ky0kdg8pcMjqBhU2DteO-33" target="Ky0kdg8pcMjqBhU2DteO-36">
          <mxGeometry relative="1" as="geometry">
            <Array as="points">
              <mxPoint x="1829" y="2222" />
            </Array>
          </mxGeometry>
        </mxCell>
        <mxCell id="Ky0kdg8pcMjqBhU2DteO-96" value="撤销完成" style="verticalAlign=bottom;edgeStyle=elbowEdgeStyle;elbow=vertical;curved=0;rounded=0;dashed=1;dashPattern=2 3;endArrow=block;" edge="1" parent="1" source="Ky0kdg8pcMjqBhU2DteO-30" target="Ky0kdg8pcMjqBhU2DteO-22">
          <mxGeometry relative="1" as="geometry">
            <Array as="points">
              <mxPoint x="1407" y="2270" />
            </Array>
          </mxGeometry>
        </mxCell>
        <mxCell id="Ky0kdg8pcMjqBhU2DteO-97" value="处理完成" style="verticalAlign=bottom;edgeStyle=elbowEdgeStyle;elbow=vertical;curved=0;rounded=0;dashed=1;dashPattern=2 3;endArrow=block;" edge="1" parent="1" source="Ky0kdg8pcMjqBhU2DteO-20" target="Ky0kdg8pcMjqBhU2DteO-19">
          <mxGeometry relative="1" as="geometry">
            <Array as="points">
              <mxPoint x="1007" y="2318" />
            </Array>
          </mxGeometry>
        </mxCell>
        <mxCell id="Ky0kdg8pcMjqBhU2DteO-98" value="退款成功" style="verticalAlign=bottom;edgeStyle=elbowEdgeStyle;elbow=vertical;curved=0;rounded=0;dashed=1;dashPattern=2 3;endArrow=block;" edge="1" parent="1" source="Ky0kdg8pcMjqBhU2DteO-19" target="Ky0kdg8pcMjqBhU2DteO-3">
          <mxGeometry relative="1" as="geometry">
            <Array as="points">
              <mxPoint x="507" y="2366" />
            </Array>
          </mxGeometry>
        </mxCell>
        <mxCell id="Ky0kdg8pcMjqBhU2DteO-99" value="查询待结算交易" style="verticalAlign=bottom;edgeStyle=elbowEdgeStyle;elbow=vertical;curved=0;rounded=0;endArrow=block;" edge="1" parent="1" source="Ky0kdg8pcMjqBhU2DteO-26" target="Ky0kdg8pcMjqBhU2DteO-42">
          <mxGeometry relative="1" as="geometry">
            <Array as="points">
              <mxPoint x="1627" y="2493" />
            </Array>
          </mxGeometry>
        </mxCell>
        <mxCell id="Ky0kdg8pcMjqBhU2DteO-100" value="返回待结算数据" style="verticalAlign=bottom;edgeStyle=elbowEdgeStyle;elbow=vertical;curved=0;rounded=0;dashed=1;dashPattern=2 3;endArrow=block;" edge="1" parent="1" source="Ky0kdg8pcMjqBhU2DteO-42" target="Ky0kdg8pcMjqBhU2DteO-26">
          <mxGeometry relative="1" as="geometry">
            <Array as="points">
              <mxPoint x="1630" y="2541" />
            </Array>
          </mxGeometry>
        </mxCell>
        <mxCell id="Ky0kdg8pcMjqBhU2DteO-101" value="计算应结算金额" style="verticalAlign=bottom;edgeStyle=elbowEdgeStyle;elbow=vertical;curved=0;rounded=0;endArrow=block;" edge="1" parent="1" source="Ky0kdg8pcMjqBhU2DteO-26" target="Ky0kdg8pcMjqBhU2DteO-7">
          <mxGeometry relative="1" as="geometry">
            <Array as="points">
              <mxPoint x="807" y="2589" />
            </Array>
          </mxGeometry>
        </mxCell>
        <mxCell id="Ky0kdg8pcMjqBhU2DteO-102" value="申请结算" style="verticalAlign=bottom;edgeStyle=elbowEdgeStyle;elbow=vertical;curved=0;rounded=0;endArrow=block;" edge="1" parent="1" source="Ky0kdg8pcMjqBhU2DteO-5" target="Ky0kdg8pcMjqBhU2DteO-26">
          <mxGeometry relative="1" as="geometry">
            <Array as="points">
              <mxPoint x="806" y="2637" />
            </Array>
          </mxGeometry>
        </mxCell>
        <mxCell id="Ky0kdg8pcMjqBhU2DteO-103" value="执行结算" style="verticalAlign=bottom;edgeStyle=elbowEdgeStyle;elbow=vertical;curved=0;rounded=0;endArrow=block;" edge="1" parent="1" source="Ky0kdg8pcMjqBhU2DteO-26" target="Ky0kdg8pcMjqBhU2DteO-15">
          <mxGeometry relative="1" as="geometry">
            <Array as="points">
              <mxPoint x="1007" y="2685" />
            </Array>
          </mxGeometry>
        </mxCell>
        <mxCell id="Ky0kdg8pcMjqBhU2DteO-104" value="结算结果回调" style="verticalAlign=bottom;edgeStyle=elbowEdgeStyle;elbow=vertical;curved=0;rounded=0;dashed=1;dashPattern=2 3;endArrow=block;" edge="1" parent="1" source="Ky0kdg8pcMjqBhU2DteO-12" target="Ky0kdg8pcMjqBhU2DteO-26">
          <mxGeometry relative="1" as="geometry">
            <Array as="points">
              <mxPoint x="1004" y="2733" />
            </Array>
          </mxGeometry>
        </mxCell>
        <mxCell id="Ky0kdg8pcMjqBhU2DteO-105" value="更新结算状态" style="verticalAlign=bottom;edgeStyle=elbowEdgeStyle;elbow=vertical;curved=0;rounded=0;endArrow=block;" edge="1" parent="1" source="Ky0kdg8pcMjqBhU2DteO-26" target="Ky0kdg8pcMjqBhU2DteO-43">
          <mxGeometry relative="1" as="geometry">
            <Array as="points">
              <mxPoint x="1627" y="2781" />
            </Array>
          </mxGeometry>
        </mxCell>
        <mxCell id="Ky0kdg8pcMjqBhU2DteO-106" value="更新成功" style="verticalAlign=bottom;edgeStyle=elbowEdgeStyle;elbow=vertical;curved=0;rounded=0;dashed=1;dashPattern=2 3;endArrow=block;" edge="1" parent="1" source="Ky0kdg8pcMjqBhU2DteO-36" target="Ky0kdg8pcMjqBhU2DteO-26">
          <mxGeometry relative="1" as="geometry">
            <Array as="points">
              <mxPoint x="1630" y="2829" />
            </Array>
          </mxGeometry>
        </mxCell>
        <mxCell id="Ky0kdg8pcMjqBhU2DteO-107" value="发送结算结果通知" style="verticalAlign=bottom;edgeStyle=elbowEdgeStyle;elbow=vertical;curved=0;rounded=0;endArrow=block;" edge="1" parent="1" source="Ky0kdg8pcMjqBhU2DteO-26" target="Ky0kdg8pcMjqBhU2DteO-5">
          <mxGeometry relative="1" as="geometry">
            <Array as="points">
              <mxPoint x="807" y="2877" />
            </Array>
          </mxGeometry>
        </mxCell>
        <mxCell id="Ky0kdg8pcMjqBhU2DteO-108" value="请求访问课程" style="verticalAlign=bottom;edgeStyle=elbowEdgeStyle;elbow=vertical;curved=0;rounded=0;endArrow=block;" edge="1" parent="1" source="Ky0kdg8pcMjqBhU2DteO-4" target="Ky0kdg8pcMjqBhU2DteO-34">
          <mxGeometry relative="1" as="geometry">
            <Array as="points">
              <mxPoint x="904" y="3004" />
            </Array>
          </mxGeometry>
        </mxCell>
        <mxCell id="Ky0kdg8pcMjqBhU2DteO-109" value="验证学生课程有效性" style="verticalAlign=bottom;edgeStyle=elbowEdgeStyle;elbow=vertical;curved=0;rounded=0;endArrow=block;" edge="1" parent="1" source="Ky0kdg8pcMjqBhU2DteO-34" target="Ky0kdg8pcMjqBhU2DteO-44">
          <mxGeometry relative="1" as="geometry">
            <Array as="points">
              <mxPoint x="1827" y="3052" />
            </Array>
          </mxGeometry>
        </mxCell>
        <mxCell id="Ky0kdg8pcMjqBhU2DteO-110" value="验证通过" style="verticalAlign=bottom;edgeStyle=elbowEdgeStyle;elbow=vertical;curved=0;rounded=0;dashed=1;dashPattern=2 3;endArrow=block;" edge="1" parent="1" source="Ky0kdg8pcMjqBhU2DteO-36" target="Ky0kdg8pcMjqBhU2DteO-34">
          <mxGeometry relative="1" as="geometry">
            <Array as="points">
              <mxPoint x="1830" y="3100" />
            </Array>
          </mxGeometry>
        </mxCell>
        <mxCell id="Ky0kdg8pcMjqBhU2DteO-111" value="获取课程学习资源" style="verticalAlign=bottom;edgeStyle=elbowEdgeStyle;elbow=vertical;curved=0;rounded=0;endArrow=block;" edge="1" parent="1" source="Ky0kdg8pcMjqBhU2DteO-34" target="Ky0kdg8pcMjqBhU2DteO-29">
          <mxGeometry relative="1" as="geometry">
            <Array as="points">
              <mxPoint x="1607" y="3148" />
            </Array>
          </mxGeometry>
        </mxCell>
        <mxCell id="Ky0kdg8pcMjqBhU2DteO-112" value="返回课程学习资源" style="verticalAlign=bottom;edgeStyle=elbowEdgeStyle;elbow=vertical;curved=0;rounded=0;dashed=1;dashPattern=2 3;endArrow=block;" edge="1" parent="1" source="Ky0kdg8pcMjqBhU2DteO-27" target="Ky0kdg8pcMjqBhU2DteO-34">
          <mxGeometry relative="1" as="geometry">
            <Array as="points">
              <mxPoint x="1604" y="3196" />
            </Array>
          </mxGeometry>
        </mxCell>
        <mxCell id="Ky0kdg8pcMjqBhU2DteO-113" value="展示课程内容" style="verticalAlign=bottom;edgeStyle=elbowEdgeStyle;elbow=vertical;curved=0;rounded=0;dashed=1;dashPattern=2 3;endArrow=block;" edge="1" parent="1" source="Ky0kdg8pcMjqBhU2DteO-30" target="Ky0kdg8pcMjqBhU2DteO-4">
          <mxGeometry relative="1" as="geometry">
            <Array as="points">
              <mxPoint x="907" y="3244" />
            </Array>
          </mxGeometry>
        </mxCell>
        <mxCell id="Ky0kdg8pcMjqBhU2DteO-114" value="开始学习" style="verticalAlign=bottom;edgeStyle=elbowEdgeStyle;elbow=vertical;curved=0;rounded=0;endArrow=block;" edge="1" parent="1" source="Ky0kdg8pcMjqBhU2DteO-4" target="Ky0kdg8pcMjqBhU2DteO-35">
          <mxGeometry relative="1" as="geometry">
            <Array as="points">
              <mxPoint x="904" y="3292" />
            </Array>
          </mxGeometry>
        </mxCell>
        <mxCell id="Ky0kdg8pcMjqBhU2DteO-115" value="记录学习进度" style="verticalAlign=bottom;edgeStyle=elbowEdgeStyle;elbow=vertical;curved=0;rounded=0;endArrow=block;" edge="1" parent="1" source="Ky0kdg8pcMjqBhU2DteO-35" target="Ky0kdg8pcMjqBhU2DteO-45">
          <mxGeometry relative="1" as="geometry">
            <Array as="points">
              <mxPoint x="1827" y="3340" />
            </Array>
          </mxGeometry>
        </mxCell>
        <mxCell id="Ky0kdg8pcMjqBhU2DteO-116" value="记录成功" style="verticalAlign=bottom;edgeStyle=elbowEdgeStyle;elbow=vertical;curved=0;rounded=0;dashed=1;dashPattern=2 3;endArrow=block;" edge="1" parent="1" source="Ky0kdg8pcMjqBhU2DteO-36" target="Ky0kdg8pcMjqBhU2DteO-35">
          <mxGeometry relative="1" as="geometry">
            <Array as="points">
              <mxPoint x="1830" y="3388" />
            </Array>
          </mxGeometry>
        </mxCell>
        <mxCell id="Ky0kdg8pcMjqBhU2DteO-117" value="更新学习状态" style="verticalAlign=bottom;edgeStyle=elbowEdgeStyle;elbow=vertical;curved=0;rounded=0;dashed=1;dashPattern=2 3;endArrow=block;" edge="1" parent="1" source="Ky0kdg8pcMjqBhU2DteO-30" target="Ky0kdg8pcMjqBhU2DteO-4">
          <mxGeometry relative="1" as="geometry">
            <Array as="points">
              <mxPoint x="907" y="3436" />
            </Array>
          </mxGeometry>
        </mxCell>
        <mxCell id="Ky0kdg8pcMjqBhU2DteO-118" value="课程发布流程" style="fillColor=#ffff88;strokeColor=#9E916F;" vertex="1" parent="1">
          <mxGeometry x="70" y="115" width="1896" height="49" as="geometry" />
        </mxCell>
        <mxCell id="Ky0kdg8pcMjqBhU2DteO-119" value="课程购买流程" style="fillColor=#ffff88;strokeColor=#9E916F;" vertex="1" parent="1">
          <mxGeometry x="70" y="482" width="1896" height="49" as="geometry" />
        </mxCell>
        <mxCell id="Ky0kdg8pcMjqBhU2DteO-120" value="退款流程" style="fillColor=#ffff88;strokeColor=#9E916F;" vertex="1" parent="1">
          <mxGeometry x="70" y="1617" width="1896" height="49" as="geometry" />
        </mxCell>
        <mxCell id="Ky0kdg8pcMjqBhU2DteO-121" value="结算流程" style="fillColor=#ffff88;strokeColor=#9E916F;" vertex="1" parent="1">
          <mxGeometry x="70" y="2416" width="1896" height="49" as="geometry" />
        </mxCell>
        <mxCell id="Ky0kdg8pcMjqBhU2DteO-122" value="学生访问课程流程" style="fillColor=#ffff88;strokeColor=#9E916F;" vertex="1" parent="1">
          <mxGeometry x="70" y="2927" width="1896" height="49" as="geometry" />
        </mxCell>
      </root>
    </mxGraphModel>
  </diagram>
</mxfile>
